<mxfile host="Electron" modified="2023-08-20T01:56:39.290Z" agent="Mozilla/5.0 (Windows NT 10.0; Win64; x64) AppleWebKit/537.36 (KHTML, like Gecko) draw.io/21.5.1 Chrome/112.0.5615.204 Electron/24.6.0 Safari/537.36" etag="_gO8lmqfb81FcjcwX7WF" version="21.5.1" type="device">
  <diagram name="Page-1" id="ZA1CKfXsXndvh_Sp1iPu">
    <mxGraphModel dx="2871" dy="824" grid="1" gridSize="10" guides="1" tooltips="1" connect="1" arrows="1" fold="1" page="1" pageScale="1" pageWidth="827" pageHeight="1169" math="0" shadow="0">
      <root>
        <mxCell id="0" />
        <mxCell id="1" parent="0" />
        <mxCell id="iGqti44NLWKVLAKu20BZ-7" style="edgeStyle=orthogonalEdgeStyle;rounded=0;orthogonalLoop=1;jettySize=auto;html=1;" parent="1" source="sGI7PMY1R-_JjtwmHBOA-1" target="sGI7PMY1R-_JjtwmHBOA-2" edge="1">
          <mxGeometry relative="1" as="geometry" />
        </mxCell>
        <mxCell id="sGI7PMY1R-_JjtwmHBOA-1" value="API Gateway" style="sketch=0;points=[[0,0,0],[0.25,0,0],[0.5,0,0],[0.75,0,0],[1,0,0],[0,1,0],[0.25,1,0],[0.5,1,0],[0.75,1,0],[1,1,0],[0,0.25,0],[0,0.5,0],[0,0.75,0],[1,0.25,0],[1,0.5,0],[1,0.75,0]];outlineConnect=0;fontColor=#232F3E;gradientColor=#945DF2;gradientDirection=north;fillColor=#5A30B5;strokeColor=#ffffff;dashed=0;verticalLabelPosition=bottom;verticalAlign=top;align=center;html=1;fontSize=12;fontStyle=0;aspect=fixed;shape=mxgraph.aws4.resourceIcon;resIcon=mxgraph.aws4.api_gateway;" parent="1" vertex="1">
          <mxGeometry x="330" y="286" width="78" height="78" as="geometry" />
        </mxCell>
        <mxCell id="iGqti44NLWKVLAKu20BZ-9" style="edgeStyle=orthogonalEdgeStyle;rounded=0;orthogonalLoop=1;jettySize=auto;html=1;" parent="1" source="sGI7PMY1R-_JjtwmHBOA-2" target="iGqti44NLWKVLAKu20BZ-2" edge="1">
          <mxGeometry relative="1" as="geometry" />
        </mxCell>
        <mxCell id="iGqti44NLWKVLAKu20BZ-10" style="edgeStyle=orthogonalEdgeStyle;rounded=0;orthogonalLoop=1;jettySize=auto;html=1;" parent="1" source="sGI7PMY1R-_JjtwmHBOA-2" target="iGqti44NLWKVLAKu20BZ-1" edge="1">
          <mxGeometry relative="1" as="geometry" />
        </mxCell>
        <mxCell id="sGI7PMY1R-_JjtwmHBOA-2" value="Lambda (CRUD)" style="outlineConnect=0;dashed=0;verticalLabelPosition=middle;verticalAlign=middle;align=left;html=1;shape=mxgraph.aws3.lambda_function;fillColor=#F58534;gradientColor=none;labelPosition=right;spacingLeft=5;" parent="1" vertex="1">
          <mxGeometry x="540" y="289" width="69" height="72" as="geometry" />
        </mxCell>
        <mxCell id="iGqti44NLWKVLAKu20BZ-1" value="Bucket S3 (Photos)" style="sketch=0;outlineConnect=0;fontColor=#232F3E;gradientColor=none;fillColor=#3F8624;strokeColor=none;dashed=0;verticalLabelPosition=bottom;verticalAlign=top;align=center;html=1;fontSize=12;fontStyle=0;aspect=fixed;pointerEvents=1;shape=mxgraph.aws4.bucket;" parent="1" vertex="1">
          <mxGeometry x="537" y="470" width="75" height="78" as="geometry" />
        </mxCell>
        <mxCell id="iGqti44NLWKVLAKu20BZ-2" value="DynamoDB (Data)" style="sketch=0;points=[[0,0,0],[0.25,0,0],[0.5,0,0],[0.75,0,0],[1,0,0],[0,1,0],[0.25,1,0],[0.5,1,0],[0.75,1,0],[1,1,0],[0,0.25,0],[0,0.5,0],[0,0.75,0],[1,0.25,0],[1,0.5,0],[1,0.75,0]];outlineConnect=0;fontColor=#232F3E;gradientColor=#4D72F3;gradientDirection=north;fillColor=#3334B9;strokeColor=#ffffff;dashed=0;verticalLabelPosition=top;verticalAlign=bottom;align=center;html=1;fontSize=12;fontStyle=0;aspect=fixed;shape=mxgraph.aws4.resourceIcon;resIcon=mxgraph.aws4.dynamodb;labelPosition=center;" parent="1" vertex="1">
          <mxGeometry x="535.5" y="90" width="78" height="78" as="geometry" />
        </mxCell>
        <mxCell id="iGqti44NLWKVLAKu20BZ-8" style="edgeStyle=orthogonalEdgeStyle;rounded=0;orthogonalLoop=1;jettySize=auto;html=1;entryX=0;entryY=0.5;entryDx=0;entryDy=0;entryPerimeter=0;" parent="1" source="iGqti44NLWKVLAKu20BZ-3" target="sGI7PMY1R-_JjtwmHBOA-1" edge="1">
          <mxGeometry relative="1" as="geometry" />
        </mxCell>
        <mxCell id="iGqti44NLWKVLAKu20BZ-3" value="Bucket S3 (Front-end)" style="sketch=0;outlineConnect=0;fontColor=#232F3E;gradientColor=none;fillColor=#3F8624;strokeColor=none;dashed=0;verticalLabelPosition=bottom;verticalAlign=top;align=center;html=1;fontSize=12;fontStyle=0;aspect=fixed;pointerEvents=1;shape=mxgraph.aws4.bucket;" parent="1" vertex="1">
          <mxGeometry x="120" y="286" width="75" height="78" as="geometry" />
        </mxCell>
        <mxCell id="nbShBXC8wl3B7LosuNNH-1" style="edgeStyle=orthogonalEdgeStyle;rounded=0;orthogonalLoop=1;jettySize=auto;html=1;" edge="1" parent="1" source="iGqti44NLWKVLAKu20BZ-5" target="iGqti44NLWKVLAKu20BZ-3">
          <mxGeometry relative="1" as="geometry" />
        </mxCell>
        <mxCell id="iGqti44NLWKVLAKu20BZ-5" value="Browser" style="image;aspect=fixed;html=1;points=[];align=center;fontSize=12;image=img/lib/azure2/general/Browser.svg;" parent="1" vertex="1">
          <mxGeometry x="-150" y="270" width="137.5" height="110" as="geometry" />
        </mxCell>
        <mxCell id="nbShBXC8wl3B7LosuNNH-2" style="edgeStyle=orthogonalEdgeStyle;rounded=0;orthogonalLoop=1;jettySize=auto;html=1;" edge="1" parent="1" source="iGqti44NLWKVLAKu20BZ-6" target="iGqti44NLWKVLAKu20BZ-5">
          <mxGeometry relative="1" as="geometry" />
        </mxCell>
        <mxCell id="iGqti44NLWKVLAKu20BZ-6" value="User" style="sketch=0;outlineConnect=0;fontColor=#232F3E;gradientColor=none;fillColor=#232F3D;strokeColor=none;dashed=0;verticalLabelPosition=bottom;verticalAlign=top;align=center;html=1;fontSize=12;fontStyle=0;aspect=fixed;pointerEvents=1;shape=mxgraph.aws4.user;" parent="1" vertex="1">
          <mxGeometry x="-360" y="286" width="78" height="78" as="geometry" />
        </mxCell>
      </root>
    </mxGraphModel>
  </diagram>
</mxfile>
